<svg width="221" height="160" viewBox="0 0 221 160" fill="none" xmlns="http://www.w3.org/2000/svg">
<path d="M132.61 80C132.61 73.3705 133.931 67.0558 136.321 61.3115H20.9014V130.164C20.9014 135.593 25.2531 140 30.6152 140H166.608C171.97 140 176.322 135.593 176.322 130.164V128.02C151.863 126.013 132.61 105.279 132.61 80Z" fill="#563CFE"/>
<path fill-rule="evenodd" clip-rule="evenodd" d="M176.322 29.8361V31.9803C163.053 33.0623 151.319 39.6525 143.353 49.5082H20.9014V29.8361C20.9014 24.4066 25.2531 20 30.6152 20H166.608C171.97 20 176.322 24.4066 176.322 29.8361ZM65.5849 34.7542C65.5849 37.4704 63.4104 39.6722 60.728 39.6722C58.0456 39.6722 55.8711 37.4704 55.8711 34.7542C55.8711 32.0381 58.0456 29.8362 60.728 29.8362C63.4104 29.8362 65.5849 32.0381 65.5849 34.7542ZM47.1284 39.6722C49.8108 39.6722 51.9853 37.4704 51.9853 34.7542C51.9853 32.0381 49.8108 29.8362 47.1284 29.8362C44.446 29.8362 42.2715 32.0381 42.2715 34.7542C42.2715 37.4704 44.446 39.6722 47.1284 39.6722ZM38.3866 34.7542C38.3866 37.4704 36.2121 39.6722 33.5297 39.6722C30.8474 39.6722 28.6729 37.4704 28.6729 34.7542C28.6729 32.0381 30.8474 29.8362 33.5297 29.8362C36.2121 29.8362 38.3866 32.0381 38.3866 34.7542Z" fill="#563CFE"/>
<path d="M177.662 105.928C176.244 105.633 175.215 104.708 174.243 103.685C172.223 101.6 170.163 99.5343 168.104 97.4687C167.968 97.331 167.832 97.213 167.657 97.0359C167.327 97.39 167.035 97.7245 166.725 98.0392C164.801 99.9474 162.081 99.9474 160.178 98.0392C158.798 96.6818 157.438 95.3048 156.098 93.9081C154.174 91.9409 154.174 89.2064 156.098 87.2589C158.837 84.4654 161.615 81.731 164.316 78.9179C168.512 74.531 171.174 69.2982 172.398 63.3376C172.436 63.1212 172.339 62.8458 172.242 62.6491C170.61 59.5409 172.903 55.8032 176.38 55.9212C177.565 55.9605 178.595 56.413 179.43 57.2589C185.103 62.9835 190.776 68.7081 196.429 74.4523C197.77 75.8097 198.139 77.4622 197.479 79.272C196.837 81.0622 195.497 82.0261 193.632 82.2425C192.738 82.3408 191.922 82.1245 191.106 81.731C190.854 81.613 190.543 81.554 190.271 81.5933C186.172 82.4589 182.403 84.0917 178.964 86.472C178.906 86.5113 178.828 86.5704 178.711 86.6687C178.906 86.8654 179.1 87.0622 179.275 87.2392C181.237 89.2458 181.237 91.9605 179.275 93.9671C178.964 94.2818 178.634 94.5572 178.245 94.9113C179.45 96.0917 180.615 97.154 181.664 98.295C183.802 100.636 182.966 104.374 180.071 105.593C179.722 105.731 179.353 105.829 178.983 105.947H177.682L177.662 105.928ZM187.959 78.9966C183.607 74.59 179.255 70.2031 174.923 65.8163C173.563 70.99 171.135 75.672 167.696 79.7245C169.891 81.9474 172.048 84.131 174.224 86.3146C178.245 82.813 182.869 80.3736 187.978 78.9966H187.959ZM165.54 82.0261C165.442 82.1245 165.345 82.2031 165.268 82.2818C162.936 84.6425 160.605 86.9835 158.274 89.3441C157.438 90.19 157.438 91.0163 158.274 91.8622C159.556 93.1605 160.858 94.4589 162.14 95.7769C163.033 96.6622 163.811 96.6622 164.704 95.7769C166.997 93.4556 169.289 91.1343 171.582 88.813C171.698 88.6949 171.795 88.5769 171.892 88.4786C169.755 86.3146 167.657 84.19 165.54 82.0458V82.0261ZM194.739 77.8556C194.739 77.1671 194.487 76.7736 194.137 76.4195C188.581 70.813 183.005 65.1868 177.449 59.5605C177.352 59.4622 177.274 59.3638 177.157 59.2851C176.633 58.9113 176.089 58.8327 175.506 59.1277C174.962 59.4031 174.632 59.9736 174.748 60.6031C174.826 60.9769 175.02 61.39 175.273 61.6458C180.868 67.331 186.483 72.9966 192.078 78.6622C192.155 78.7409 192.233 78.8392 192.33 78.8982C192.816 79.2327 193.34 79.3113 193.884 79.0359C194.428 78.7605 194.681 78.3081 194.72 77.8556H194.739ZM169.853 95.0294C169.853 95.0294 170.086 95.1671 170.202 95.2851C172.495 97.5868 174.768 99.8884 177.041 102.19C177.138 102.288 177.254 102.406 177.371 102.505C177.837 102.879 178.362 102.977 178.925 102.741C179.489 102.505 179.78 102.052 179.838 101.462C179.877 100.931 179.663 100.518 179.294 100.164C176.944 97.7835 174.593 95.4032 172.242 93.0425C172.164 92.9638 172.067 92.8851 172.028 92.8458C171.31 93.5736 170.63 94.2622 169.872 95.0294H169.853ZM176.225 88.5376C175.486 89.2261 174.787 89.9146 174.127 90.5441C174.865 91.2917 175.564 91.9999 176.244 92.6884C178.187 90.9572 178.206 90.2687 176.225 88.5376Z" fill="#563CFE"/>
<path d="M196.935 58.636C196.741 58.9704 196.605 59.3836 196.352 59.659C195.4 60.6623 194.429 61.6262 193.457 62.6098C192.797 63.2786 191.864 63.2786 191.262 62.6491C190.679 62.0196 190.679 61.1344 191.32 60.4655C192.292 59.4623 193.283 58.4786 194.273 57.495C194.759 57.0032 195.4 56.9049 195.983 57.1803C196.527 57.436 196.857 57.9868 196.935 58.6557V58.636Z" fill="#563CFE"/>
<path d="M196.895 69.1999C196.39 69.1999 195.885 69.1999 195.38 69.1999C194.506 69.1802 193.826 68.4917 193.845 67.6655C193.845 66.8393 194.506 66.1704 195.36 66.1704C196.371 66.1704 197.362 66.1704 198.372 66.1704C199.227 66.1704 199.868 66.8589 199.848 67.7048C199.848 68.5114 199.207 69.1802 198.391 69.1999C197.886 69.2196 197.381 69.1999 196.876 69.1999H196.895Z" fill="#563CFE"/>
<path d="M187.804 57.0032C187.804 57.5147 187.804 58.0261 187.804 58.5179C187.785 59.3835 187.182 60.013 186.366 60.0524C185.57 60.0917 184.851 59.4819 184.812 58.6556C184.773 57.554 184.754 56.4524 184.812 55.3507C184.851 54.5245 185.589 53.9147 186.386 53.9737C187.182 54.013 187.765 54.6425 187.804 55.4688C187.804 55.9802 187.804 56.4917 187.804 56.9835V57.0032Z" fill="#563CFE"/>
<path d="M165.365 86.9245C165.209 87.0031 164.821 87.0818 164.568 87.3179C163.772 88.0458 163.014 88.813 162.295 89.5999C161.751 90.19 161.81 91.0556 162.334 91.6261C162.878 92.1966 163.772 92.295 164.374 91.7441C165.19 90.9966 165.967 90.19 166.705 89.3835C167.133 88.931 167.152 88.3409 166.9 87.7704C166.647 87.2195 166.181 86.9441 165.384 86.9048L165.365 86.9245Z" fill="white"/>
<path d="M165.365 86.9245C166.181 86.9441 166.628 87.2393 166.88 87.7901C167.152 88.3606 167.113 88.9508 166.686 89.4032C165.928 90.2295 165.151 91.0164 164.355 91.7639C163.752 92.3147 162.859 92.2164 162.315 91.6459C161.79 91.0754 161.751 90.1901 162.276 89.6196C163.014 88.8328 163.772 88.0655 164.549 87.3377C164.801 87.1016 165.19 87.0229 165.345 86.9442L165.365 86.9245Z" fill="#563CFE"/>
</svg>
