<svg width="220" height="160" viewBox="0 0 220 160" fill="none" xmlns="http://www.w3.org/2000/svg">
<path d="M131.818 80C131.818 73.3705 133.139 67.0558 135.529 61.3115H20.1099V130.164C20.1099 135.593 24.4616 140 29.8237 140H165.817C171.179 140 175.53 135.593 175.53 130.164V128.02C151.071 126.013 131.818 105.279 131.818 80Z" fill="#563CFE"/>
<path fill-rule="evenodd" clip-rule="evenodd" d="M175.53 29.8361V31.9803C162.261 33.0623 150.527 39.6525 142.562 49.5082H20.1099V29.8361C20.1099 24.4066 24.4616 20 29.8237 20H165.817C171.179 20 175.53 24.4066 175.53 29.8361ZM64.7934 34.7542C64.7934 37.4704 62.6189 39.6722 59.9365 39.6722C57.2541 39.6722 55.0796 37.4704 55.0796 34.7542C55.0796 32.0381 57.2541 29.8362 59.9365 29.8362C62.6189 29.8362 64.7934 32.0381 64.7934 34.7542ZM46.3369 39.6722C49.0193 39.6722 51.1938 37.4704 51.1938 34.7542C51.1938 32.0381 49.0193 29.8362 46.3369 29.8362C43.6545 29.8362 41.48 32.0381 41.48 34.7542C41.48 37.4704 43.6545 39.6722 46.3369 39.6722ZM37.5951 34.7542C37.5951 37.4704 35.4206 39.6722 32.7382 39.6722C30.0559 39.6722 27.8813 37.4704 27.8813 34.7542C27.8813 32.0381 30.0559 29.8362 32.7382 29.8362C35.4206 29.8362 37.5951 32.0381 37.5951 34.7542Z" fill="#563CFE"/>
<path d="M190.491 54C190.951 54.0984 191.412 54.1967 191.854 54.2951C196.693 55.4557 200.015 59.9607 199.881 65.1344C199.746 70.0721 196.059 74.3803 191.278 75.2262C186.88 76.0131 182.637 73.9869 180.371 70.0328C180.313 69.9148 180.217 69.8164 180.14 69.6787C176.204 72 172.286 74.3213 168.35 76.6623C169.271 79.2197 169.271 81.777 168.35 84.3738C172.286 86.6951 176.204 89.0164 180.063 91.2984C180.736 90.4328 181.312 89.5082 182.061 88.7803C185.075 85.7902 188.686 84.8262 192.661 86.1639C196.636 87.5016 199.055 90.4328 199.746 94.6623C200.707 100.446 196.751 105.954 191.047 106.898C185.479 107.823 180.102 103.928 179.161 98.1836C178.988 97.1213 179.065 96.0197 179.065 94.9377C179.065 94.6623 179.026 94.5049 178.777 94.3672C174.802 92.0262 170.808 89.6656 166.833 87.3246C166.813 87.3246 166.775 87.3049 166.698 87.2656C166.525 87.4623 166.333 87.6787 166.122 87.8951C163.05 91.0033 159.42 92.0262 155.33 90.6688C151.24 89.2918 148.897 86.2623 148.206 81.9148C148.206 81.7967 148.148 81.6787 148.11 81.5607C148.11 80.8721 148.11 80.1836 148.11 79.4951C148.148 79.377 148.187 79.259 148.206 79.141C149.204 71.6852 157.058 67.5541 163.511 71.0951C164.74 71.7639 165.777 72.6885 166.698 73.7902C166.89 73.6918 167.044 73.5934 167.198 73.4951C170.961 71.2721 174.744 69.0295 178.527 66.8262C178.95 66.5705 179.084 66.3344 179.046 65.823C178.546 61.082 181.177 56.5967 185.498 54.8262C186.4 54.4525 187.399 54.2754 188.34 54.0197C189.05 54.0197 189.761 54.0197 190.471 54.0197L190.491 54ZM196.655 96.3148C196.655 92.2426 193.409 88.8984 189.434 88.8984C185.459 88.8984 182.214 92.2426 182.214 96.3148C182.214 100.367 185.459 103.692 189.415 103.692C193.39 103.692 196.655 100.387 196.655 96.3148ZM158.556 87.8951C162.531 87.9148 165.776 84.6492 165.815 80.5967C165.853 76.5049 162.646 73.1803 158.652 73.141C154.658 73.1016 151.394 76.4066 151.374 80.4787C151.374 84.5705 154.562 87.8951 158.556 87.9148V87.8951ZM189.415 57.3049C185.459 57.3049 182.214 60.6295 182.214 64.682C182.214 68.7541 185.459 72.0984 189.434 72.0984C193.409 72.0984 196.655 68.7738 196.655 64.682C196.655 60.6098 193.409 57.2852 189.415 57.2852V57.3049Z" fill="#563CFE"/>
</svg>
