<?xml version="1.0" encoding="UTF-8"?>
<svg id="Capa_2" data-name="Capa 2" xmlns="http://www.w3.org/2000/svg" viewBox="0 0 202.73 189.11">
  <defs>
    <style>
      .cls-1 {
        fill: #483fff;
      }
    </style>
  </defs>
  <g id="Capa_1-2" data-name="Capa 1">
    <g>
      <path class="cls-1" d="M105.9,30.01v22.66h45.52c12.27,0,23.7,12.24,24.53,24.08,2,28.55-1.55,59.4,0,88.19-.86,11.45-9.51,20.97-20.6,23.48-34.7,1.39-69.64.22-104.43.6-12.54-1.23-22.87-11.04-24.12-23.66l.06-89.76c1.09-11.33,12.95-22.91,24.46-22.91h45.52v-22.66c-13.47-3.71-14.56-23.35-1.64-28.62,20.01-8.15,30.92,21.85,10.7,28.62ZM69.96,88.2c-16.67,2.28-16.4,28.68.72,30.37,23.38,2.31,22.96-33.61-.72-30.37ZM127.22,88.2c-16.64,2.28-16.62,28,0,30.27,23.8,3.26,23.81-33.52,0-30.27ZM73.65,143.38c-2.59.59-3.72,4.1-2.43,6.38,1.22,2.15,8.72,4.79,11.3,5.59,13.8,4.28,29.83,3.82,43.14-1.98,3.39-1.47,8.3-3.33,5.86-7.9-2.61-4.89-9.41.06-13.28,1.3-12.77,4.12-24.26,3.3-36.75-1.11-2.57-.91-4.97-2.94-7.84-2.29Z"/>
      <path class="cls-1" d="M17.75,92.21v57.26h-6.38c-4.2,0-10.26-6-10.73-10.28.69-11.17-1.57-25.17-.15-36.03,1.06-8.1,9.85-11.95,17.27-10.95Z"/>
      <path class="cls-1" d="M184.98,149.47v-57.26c7.38-1.03,16.21,2.92,17.27,10.95,1.43,10.86-.84,24.86-.15,36.03-.47,4.28-6.54,10.28-10.73,10.28h-6.38Z"/>
      <path class="cls-1" d="M71.6,96.84c10.21-1.67,10.21,14.66,0,12.98-6.99-1.15-6.99-11.83,0-12.98Z"/>
      <path class="cls-1" d="M128.44,96.84c8.85-1.8,11.02,11.62,2.69,12.99-8.76,1.43-10.65-11.37-2.69-12.99Z"/>
    </g>
  </g>
</svg>