<svg xmlns="http://www.w3.org/2000/svg" viewBox="0 0 100 100" preserveAspectRatio="xMidYMid" width="200" height="200" style="shape-rendering: auto; display: block; background: rgb(255, 255, 255);" xmlns:xlink="http://www.w3.org/1999/xlink"><g><g transform="rotate(0 50 50)">
  <rect fill="#6168f8" height="16" width="6" ry="3.2" rx="3" y="22" x="47">
    <animate repeatCount="indefinite" begin="-1.4112903225806452s" dur="1.6129032258064517s" keyTimes="0;1" values="1;0" attributeName="opacity"></animate>
  </rect>
</g><g transform="rotate(45 50 50)">
  <rect fill="#6168f8" height="16" width="6" ry="3.2" rx="3" y="22" x="47">
    <animate repeatCount="indefinite" begin="-1.2096774193548387s" dur="1.6129032258064517s" keyTimes="0;1" values="1;0" attributeName="opacity"></animate>
  </rect>
</g><g transform="rotate(90 50 50)">
  <rect fill="#6168f8" height="16" width="6" ry="3.2" rx="3" y="22" x="47">
    <animate repeatCount="indefinite" begin="-1.0080645161290323s" dur="1.6129032258064517s" keyTimes="0;1" values="1;0" attributeName="opacity"></animate>
  </rect>
</g><g transform="rotate(135 50 50)">
  <rect fill="#6168f8" height="16" width="6" ry="3.2" rx="3" y="22" x="47">
    <animate repeatCount="indefinite" begin="-0.8064516129032259s" dur="1.6129032258064517s" keyTimes="0;1" values="1;0" attributeName="opacity"></animate>
  </rect>
</g><g transform="rotate(180 50 50)">
  <rect fill="#6168f8" height="16" width="6" ry="3.2" rx="3" y="22" x="47">
    <animate repeatCount="indefinite" begin="-0.6048387096774194s" dur="1.6129032258064517s" keyTimes="0;1" values="1;0" attributeName="opacity"></animate>
  </rect>
</g><g transform="rotate(225 50 50)">
  <rect fill="#6168f8" height="16" width="6" ry="3.2" rx="3" y="22" x="47">
    <animate repeatCount="indefinite" begin="-0.40322580645161293s" dur="1.6129032258064517s" keyTimes="0;1" values="1;0" attributeName="opacity"></animate>
  </rect>
</g><g transform="rotate(270 50 50)">
  <rect fill="#6168f8" height="16" width="6" ry="3.2" rx="3" y="22" x="47">
    <animate repeatCount="indefinite" begin="-0.20161290322580647s" dur="1.6129032258064517s" keyTimes="0;1" values="1;0" attributeName="opacity"></animate>
  </rect>
</g><g transform="rotate(315 50 50)">
  <rect fill="#6168f8" height="16" width="6" ry="3.2" rx="3" y="22" x="47">
    <animate repeatCount="indefinite" begin="0s" dur="1.6129032258064517s" keyTimes="0;1" values="1;0" attributeName="opacity"></animate>
  </rect>
</g><g></g></g><!-- [ldio] generated by https://loading.io --></svg>