<?xml version="1.0" encoding="UTF-8"?>
<svg id="Capa_2" data-name="Capa 2" xmlns="http://www.w3.org/2000/svg" viewBox="0 0 182.68 171">
  <defs>
    <style>
      .cls-1 {
        fill: #483fff;
      }
    </style>
  </defs>
  <g id="Capa_1-2" data-name="Capa 1">
    <g>
      <path class="cls-1" d="M15.91.12l149.83-.12c9.05.71,16.15,7.46,16.93,16.55v137.4c-.58,8.34-6.31,14.71-14.45,16.36-51.14.92-102.63.92-153.77,0-7.93-1.61-13.7-7.86-14.45-15.99L.02,15.81C1.11,7.35,7.56,1.29,15.91.12ZM170.48,36.16v-19.6c0-1.69-2.6-3.85-4.26-4.12l-149.49-.09c-1.75.26-4.54,2.39-4.54,4.21v19.6h158.29ZM35.3,67.08c-2.13.36-4.24,2.36-4.68,4.45-.48,2.27-.47,13.41.09,15.55s2.73,3.93,4.91,4.22l111.08.03c2.74-.24,5.11-2.44,5.48-5.17.35-2.59.38-12.21-.14-14.64-.48-2.26-2.71-4.2-5-4.51l-111.75.06ZM35.3,115.78c-2.66.6-4.54,2.68-4.85,5.42s-.36,11.29.09,13.99c.48,2.87,3.01,4.62,5.79,4.86,15.75,1.39,33.52-1.07,49.48-.01,3.25-.4,5.25-2.66,5.53-5.88s.36-10.32-.05-13.3-2.95-5.13-5.85-5.19l-50.15.11Z"/>
      <path class="cls-1" d="M126.63,18.37c1.75-.29,6.1-.29,7.9-.09,5.93.67,7.59,8.45,2.61,11.36-2.22,1.3-10.47,1.28-12.67-.15-4.49-2.92-3.05-10.24,2.17-11.12Z"/>
      <path class="cls-1" d="M150.98,18.37c1.75-.29,6.1-.29,7.9-.09,5.93.67,7.59,8.45,2.61,11.36-2.22,1.3-10.47,1.28-12.67-.15-4.49-2.92-3.05-10.24,2.17-11.12Z"/>
    </g>
  </g>
</svg>